<?xml version="1.0" encoding="UTF-8"?><svg id="b" xmlns="http://www.w3.org/2000/svg" viewBox="0 0 404.1 130"><defs><style>.d{fill:#0c4140;}</style></defs><g id="c"><path class="d" d="M124.69,46.57c8.03.55,15.16,5.08,15.16,13.44,0,6.72-4.87,12.76-18.73,12.76h-22.64v-.41c4.66,0,4.94-3.43,4.94-8.51V31.75c0-5.08-.27-8.51-4.94-8.51v-.41h21.68c12.28,0,17.01,4.87,17.01,11.59,0,7.55-6.17,11.11-12.49,12v.14ZM116.19,23.93c-1.65,0-2.61.82-2.61,2.47v19.82h4.46c6.65,0,9.19-4.8,9.19-10.63,0-6.65-3.02-11.66-9.47-11.66h-1.58ZM129.22,59.53c0-7.07-3.77-12.21-10.98-12.21h-4.66v19.96c0,1.44.07,4.39,4.94,4.39,6.38,0,10.7-4.53,10.7-12.14Z"/><path class="d" d="M185.34,72.36v.41c-1.37.14-5.63.27-8.03.27-5.63,0-6.86-1.71-15.23-21.13-1.1-2.33-1.85-2.95-4.05-2.95h-1.65v14.89c0,5.08.41,8.51,5.08,8.51v.41h-20.17v-.41c4.66,0,4.94-3.43,4.94-8.51V31.75c0-5.08-.27-8.51-4.94-8.51v-.41h20.85c11.59,0,17.42,4.87,17.42,12.83,0,6.59-4.6,10.91-11.04,12.55v.14c1.99,1.17,3.77,3.7,5.56,7.13,7.2,13.65,8.44,15.98,11.25,16.87ZM156.39,47.87h3.98c5.69,0,8.85-3.91,8.85-11.46s-2.74-12.48-8.78-12.48h-1.44c-1.65,0-2.61.82-2.61,2.47v21.47Z"/><path class="d" d="M183.62,47.94c0-15.37,9.06-25.93,23.05-25.93s22.98,10.01,22.98,25.66-9.06,25.93-23.12,25.93-22.91-10.02-22.91-25.66ZM218.68,47.8c0-13.86-3.84-24.83-12.07-24.83s-12,10.56-12,24.83,3.77,24.83,12.07,24.83,12-10.56,12-24.83Z"/><path class="d" d="M246.53,63.85c0,5.08.27,8.51,4.94,8.51v.41h-20.03v-.41c4.66,0,4.94-3.43,4.94-8.51V31.75c0-5.08-.27-8.51-4.94-8.51v-.41h20.03v.41c-4.66,0-4.94,3.43-4.94,8.51v32.1ZM255.24,41.22c11.94,21.06,17.9,30.18,20.99,31.14v.41c-2.4.27-6.45.27-8.03.27-6.72,0-8.99-4.39-20.17-24.97l11.32-13.86c2.88-3.57,4.25-5.83,4.25-8.09,0-1.71-1.17-2.74-2.68-2.88v-.41h14.06v.41c-3.02.75-8.64,4.46-14.61,11.8l-5.14,6.17Z"/><path class="d" d="M314.03,59.74l-1.78,13.03h-36.08v-.41c4.66,0,4.94-3.43,4.94-8.51V31.75c0-5.08-.27-8.51-4.94-8.51v-.41h35.05l.96,11.66h-.41c-4.18-8.3-7.2-10.56-14.82-10.56h-5.69v22.29h4.05c6.72,0,8.85-1.85,10.43-6.93h.41v15.57h-.41c-1.65-5.42-3.7-7.55-10.43-7.55h-4.05v21.13c0,1.99.62,3.22,2.74,3.22h3.77c7,0,10.98-1.85,15.85-11.94h.41Z"/><path class="d" d="M99.31,104.34c0-15.37,9.67-25.93,22.98-25.93,7.55,0,12.48,1.92,15.78,3.7v8.03h-.41c-3.64-7.48-7.89-10.77-15.43-10.77-9.6,0-16.19,10.56-16.19,24.9s6.24,24.76,16.33,24.76c5.9,0,10.56-2.47,10.56-6.45v-7.55c0-5.08-.41-7.61-4.39-7.89v-.41h12.62v.41c-2.06.27-2.2,2.81-2.2,7.89v10.01c-3.84,2.61-9.81,4.94-16.81,4.94-13.86,0-22.84-10.63-22.84-25.66Z"/><path class="d" d="M144.04,104.34c0-15.37,8.99-25.93,22.29-25.93s22.23,10.01,22.23,25.66-9.06,25.93-22.36,25.93-22.16-10.02-22.16-25.66ZM181.77,104.21c0-13.86-5.56-24.83-15.57-24.83s-15.43,10.56-15.43,24.83,5.63,24.83,15.57,24.83,15.43-10.56,15.43-24.83Z"/><path class="d" d="M195.01,112.85v-25.04c0-5.08-.27-8.16-4.94-8.16v-.41h15.98v.41c-4.66,0-4.94,3.09-4.94,8.16v24.56c0,11.11,3.5,15.98,11.94,15.98s13.31-4.87,13.31-15.64v-21.06c0-6.72-1.1-12-5.76-12v-.41h12.35v.41c-4.66,0-5.35,5.28-5.35,12v21.06c0,11.59-5.35,17.29-15.71,17.29-10.98,0-16.88-5.42-16.88-17.15Z"/><path class="d" d="M274.03,128.77v.41c-.89.14-3.77.27-5.63.27-4.53,0-5.76-2.47-14.27-20.65-1.3-2.61-2.74-3.09-4.94-3.09h-3.57v14.89c0,5.08.21,8.16,4.87,8.16v.41h-15.85v-.41c4.66,0,4.94-3.09,4.94-8.16v-32.79c0-5.08-.27-8.16-4.94-8.16v-.41h17.01c10.56,0,16.67,5.21,16.67,13.17,0,6.79-5.21,10.98-11.18,12.62v.14c1.99,1.23,3.64,4.12,5.14,7.07,6.65,12.83,8.09,15.3,11.73,16.53ZM245.63,104.62h5.14c7.48,0,11.18-4.32,11.18-11.8s-3.43-12.48-11.11-12.48h-2.61c-1.65,0-2.61.82-2.61,2.47v21.81Z"/><path class="d" d="M322.6,120.67c.27,5.08.55,8.09,5.08,8.09v.41h-15.71v-.41c4.66,0,4.94-3.02,4.66-8.09l-1.99-36.63-16.19,45.14h-.55l-16.26-45-1.78,33.2c-.34,6.59,1.17,11.39,5.83,11.39v.41h-12.83v-.41c4.39-.34,5.42-4.87,5.76-11.39l1.58-30.18c.27-5.35-2.06-7-5.49-7.55v-.41h11.59l14.41,39.99,14.34-39.99h10.56v.41c-4.66.41-5.14,2.81-4.87,8.3l1.85,32.72Z"/><path class="d" d="M365.54,117.65l-1.58,11.52h-34.57v-.41c4.66,0,4.94-3.09,4.94-8.16v-32.79c0-5.08-.27-8.16-4.94-8.16v-.41h33.54l.89,10.29h-.41c-3.5-7.82-5.76-9.19-13.24-9.19h-9.81v22.29h7.68c6.17,0,7.55-1.65,8.71-6.72h.41v15.02h-.41c-1.17-4.87-2.54-7.2-8.71-7.2h-7.68v21.13c0,2.06.62,3.22,2.74,3.22h8.09c7.27,0,9.88-1.23,13.92-10.43h.41Z"/><path class="d" d="M404.1,89.53h-.41c-3.5-7.82-5.69-9.19-12.62-9.19h-2.4v40.27c0,5.08.27,8.16,4.94,8.16v.41h-15.91v-.41c4.66,0,4.94-3.09,4.94-8.16v-40.27h-2.47c-6.93,0-9.05,1.37-12.62,9.19h-.41l.96-10.29h35.12l.89,10.29Z"/><path class="d" d="M81,78l4.93,19.04c-6.06,4.06-13.35,6.42-21.18,6.42-21.09,0-38.25-17.15-38.25-38.25s17.16-38.25,38.25-38.25c9.52,0,18.23,3.49,24.93,9.26h0s1.88,14.24,1.88,14.24l-10.56,27.54Z"/><path class="d" d="M64.75,110.54c-24.99,0-45.32-20.34-45.32-45.33s20.33-45.32,45.32-45.32c8.66,0,16.76,2.44,23.65,6.67l-1.4-10.56,6.26-9.55c-8.54-4.13-18.13-6.45-28.26-6.45C29.1,0,0,29.1,0,65s29.1,65,65,65c6.98,0,13.71-1.1,20.01-3.15l4.42-16.31-1.63-6.31c-6.75,4.01-14.64,6.31-23.05,6.31Z"/></g></svg>