<?xml version="1.0" encoding="UTF-8"?><svg id="b" xmlns="http://www.w3.org/2000/svg" viewBox="0 0 93.26 130"><defs><style>.d{fill:#0c4140;}</style></defs><g id="c"><path class="d" d="M81,78l4.93,19.04c-6.06,4.06-13.35,6.42-21.18,6.42-21.09,0-38.25-17.15-38.25-38.25s17.16-38.25,38.25-38.25c9.52,0,18.23,3.49,24.93,9.26h0s1.88,14.24,1.88,14.24l-10.56,27.54Z"/><path class="d" d="M64.75,110.54c-24.99,0-45.32-20.34-45.32-45.33s20.33-45.32,45.32-45.32c8.66,0,16.76,2.44,23.65,6.67l-1.4-10.56,6.26-9.55c-8.54-4.13-18.13-6.45-28.26-6.45C29.1,0,0,29.1,0,65s29.1,65,65,65c6.98,0,13.71-1.1,20.01-3.15l4.42-16.31-1.63-6.31c-6.75,4.01-14.64,6.31-23.05,6.31Z"/></g></svg>